# xmcd
#
# Track frame offsets:
#	150
#	10049
#	61978
#	101672
#	109055
#	148034
#
# Disc length: 2657 seconds
#
# Revision: 1
# Processed by: cddbd v1.5.2PL0 Copyright (c) Steve Scherf et al.
# Submitted via: audiograbber 1.83.01
#
DISCID=490a5f06
DTITLE=Taiga Remains - Wax Canopy
DYEAR=2009
DGENRE=Electronic
TTITLE0=Truth And Moonlight
TTITLE1=Returning Breath
TTITLE2=Hoverer
TTITLE3=Unhinged, Opaque
TTITLE4=Leaf Green Bodies
TTITLE5=Skyward
EXTD=
EXTT0=
EXTT1=
EXTT2=
EXTT3=
EXTT4=
EXTT5=
PLAYORDER=
